<svg width="26" height="26" viewBox="0 0 26 26" fill="none" xmlns="http://www.w3.org/2000/svg">
<path d="M4.31682 13.6315H10.5845M4.31682 16.1579H8.0774M14.9718 21.842V20.5789L15.5986 19.3157L16.8521 18.6842H18.1056H19.3591L20.6127 19.3157L21.2394 20.5789V21.842M2.43654 1H23.7466C24.3732 1.63158 25 2.26322 25 2.89479C25 3.60934 24.7911 16.579 25 23.1053C24.3732 23.9474 23.621 25 23.1196 25C22.6182 25 9.74864 25 3.06317 25C1.80967 25 1.18308 23.1053 1.18308 23.1053C0.681666 23.1053 1.39205 9.63162 1.18313 2.89479L2.43654 1ZM5.57035 4.78946H9.33093L9.95769 5.42104V9.2105L9.33093 9.84208H5.57035L4.94359 9.2105V5.42104L5.57035 4.78946ZM18.1056 16.1579C17.4788 16.1579 16.2253 15.7789 16.2253 14.2631C16.2253 12.7473 17.4788 12.3684 18.1056 12.3684C18.9474 12.3684 19.9859 13 19.9859 14.2631C19.9859 14.8947 19.6098 16.1579 18.1056 16.1579Z" stroke="white" stroke-width="1.5"/>
</svg>
