<svg width="26" height="26" viewBox="0 0 26 26" fill="none" xmlns="http://www.w3.org/2000/svg">
<path d="M1 25V13.3789L6.05263 8.7305H8.30436L9.84211 4.48632L18.6842 1L25 10.2968L23.7368 16.1074L18.6842 18.4316V20.3516L13.6316 25H1Z" fill="url(#paint0_linear_725_22)" style="mix-blend-mode:overlay"/>
<path d="M1 13.3789V25H13.6316M1 13.3789L13.6316 13.3789M1 13.3789L6.05263 8.7305H18.6842M13.6316 25V13.3789M13.6316 25L18.6842 20.3516V8.7305M13.6316 13.3789L18.6842 8.7305M7.31579 11.459L17.4211 6.81053M7.31579 11.459L13.6316 20.7558L23.7368 16.1074M7.31579 11.459L9.84211 4.48632L18.6842 1M17.4211 6.81053L23.7368 16.1074M17.4211 6.81053L18.6842 1M23.7368 16.1074L25 10.2968L18.6842 1" stroke="white" stroke-width="1.5"/>
<defs>
<linearGradient id="paint0_linear_725_22" x1="13" y1="1" x2="13" y2="25" gradientUnits="userSpaceOnUse">
<stop stop-color="white"/>
<stop offset="1" stop-color="white" stop-opacity="0"/>
</linearGradient>
</defs>
</svg>
