<svg width="512" height="512" viewBox="0 0 512 512" fill="none" xmlns="http://www.w3.org/2000/svg">
<path d="M261.818 350.142L269.375 333.826L316.121 338.58L261.818 350.142Z" fill="#FEB411" style="mix-blend-mode:overlay"/>
<path d="M311.73 296.992L271.604 331.548L317.971 336.864L311.73 296.992Z" fill="#FEB411" style="mix-blend-mode:overlay"/>
<path d="M319.755 333.446L313.959 295.853L332.684 289.777L319.755 333.446Z" fill="#FEB411" style="mix-blend-mode:overlay"/>
<path d="M312.621 293.954L294.788 252.697L333.576 286.74L312.621 293.954Z" fill="#FEB411" style="mix-blend-mode:overlay"/>
<path d="M268.483 330.408L252.433 281.423L309.5 295.473L268.483 330.408Z" fill="#FEB411" style="mix-blend-mode:overlay"/>
<path d="M250.204 282.562L217.658 314.46L266.254 330.029L250.204 282.562Z" fill="#FEB411" style="mix-blend-mode:overlay"/>
<path d="M231.479 265.854L217.212 311.042L248.867 280.284L231.479 265.854Z" fill="#FEB411" style="mix-blend-mode:overlay"/>
<path d="M288.1 251.045L251.096 278.385L233.708 263.576L288.1 251.045Z" fill="#FEB411" style="mix-blend-mode:overlay"/>
<path d="M253.771 279.525L291.667 251.425L309.5 292.815L253.771 279.525Z" fill="#FEB411" style="mix-blend-mode:overlay"/>
<path d="M257.939 349.015L217.658 317.109L266.276 332.281L257.939 349.015Z" fill="#FEB411" style="mix-blend-mode:overlay"/>
<path d="M261.818 350.142L269.375 333.826L316.121 338.58L261.818 350.142Z" stroke="url(#paint0_linear_732_29)" stroke-width="0.5"/>
<path d="M311.73 296.992L271.604 331.548L317.971 336.864L311.73 296.992Z" stroke="url(#paint1_linear_732_29)" stroke-width="0.5"/>
<path d="M319.755 333.446L313.959 295.853L332.684 289.777L319.755 333.446Z" stroke="url(#paint2_linear_732_29)" stroke-width="0.5"/>
<path d="M312.621 293.954L294.788 252.697L333.576 286.74L312.621 293.954Z" stroke="url(#paint3_linear_732_29)" stroke-width="0.5"/>
<path d="M268.483 330.408L252.433 281.423L309.5 295.473L268.483 330.408Z" stroke="url(#paint4_linear_732_29)" stroke-width="0.5"/>
<path d="M250.204 282.562L217.658 314.46L266.254 330.029L250.204 282.562Z" stroke="url(#paint5_linear_732_29)" stroke-width="0.5"/>
<path d="M231.479 265.854L217.212 311.042L248.867 280.284L231.479 265.854Z" stroke="url(#paint6_linear_732_29)" stroke-width="0.5"/>
<path d="M288.1 251.045L251.096 278.385L233.708 263.576L288.1 251.045Z" stroke="url(#paint7_linear_732_29)" stroke-width="0.5"/>
<path d="M253.771 279.525L291.667 251.425L309.5 292.815L253.771 279.525Z" stroke="url(#paint8_linear_732_29)" stroke-width="0.5"/>
<path d="M257.939 349.015L217.658 317.109L266.276 332.281L257.939 349.015Z" stroke="url(#paint9_linear_732_29)" stroke-width="0.5"/>
<path d="M205.788 155.63C196.137 155.372 186.797 157.44 178.391 161.576C164.693 168.556 148.193 179.156 133.249 194.667C94.0213 235.514 94.3327 281.789 94.9553 295.749C95.578 306.607 101.182 366.067 161.891 408.982C209.213 442.331 261.516 445.951 278.639 446.468C291.093 446.985 356.16 448.019 410.954 406.397C467.927 363.224 470.729 306.349 471.041 296.525C471.663 288.252 471.975 277.394 469.484 264.727C467.305 253.352 461.122 243.678 457.697 236.181C448.357 232.044 435.864 227.758 422.788 216.642C409.089 205.008 402.548 190.789 397.878 182.517C396.944 179.156 395.388 174.502 391.652 169.591C385.425 161.318 377.331 157.181 372.972 155.372C381.067 154.338 398.812 153.304 418.115 160.542C428.389 164.42 435.861 169.591 440.842 173.468C441.776 171.4 443.332 167.005 442.398 161.835C441.464 155.63 438.04 151.235 436.172 149.426C442.398 152.011 464.191 161.576 475.088 183.034C482.249 197.511 481.626 210.437 480.692 216.642C488.164 226.207 497.504 240.426 504.042 258.781C510.268 275.843 511.825 291.096 511.825 302.212C512.447 314.88 514.627 383.647 451.116 439.488C374.84 506.445 269.3 496.88 258.092 495.587C264.63 498.689 273.035 501.792 282.998 504.118C307.904 509.806 329.386 506.703 341.528 504.118C315.065 510.323 264.941 518.337 208.279 503.86C77.8322 470.252 37.3997 349.898 34.9091 341.884C37.0884 355.586 44.2087 369.687 48.8786 385.198C56.0392 410.275 65.3791 432.249 74.7189 451.121C59.7752 437.678 39.8501 416.221 23.9723 386.491C5.29259 351.59 0.933987 320.568 0 300.92C0.311329 279.462 4.3586 241.977 28.0196 201.389C61.6431 143.48 115.192 113.491 138.541 101.858C136.673 101.858 134.183 101.341 131.381 100.307C125.777 98.2384 122.664 94.8776 121.418 93.3265C130.135 92.2924 141.032 90.2242 153.174 86.3464C165.316 82.4686 174.967 77.8152 182.127 73.9373C162.825 67.4743 140.721 59.2016 117.371 47.8266C94.9553 36.9687 75.6529 25.5937 60.0865 15.2528L90.5967 28.9545L67.2471 12.1505C87.1721 23.267 112.39 35.159 142.589 45.4999C163.448 52.7385 183.061 57.909 200.496 61.7868C190.845 57.3919 179.325 51.1874 167.806 42.6562C148.504 28.696 136.051 13.7017 128.579 2.58522C136.673 8.53123 145.079 14.2187 153.174 20.1647L132.003 0C149.438 14.2187 174.033 31.2812 206.411 46.0169C224.779 54.2897 242.214 60.4942 257.469 65.1476C270.856 66.9572 283.932 68.7669 297.319 70.5766C301.366 71.0936 308.527 72.6447 315.376 77.2981C318.178 79.1078 320.357 81.176 321.914 82.7271C323.782 84.7953 326.273 87.122 329.075 89.4487C333.745 93.3265 338.103 96.4288 342.462 98.7555L405.35 97.9799C409.398 97.9799 412.2 101.082 411.266 104.184C408.152 114.525 401.614 129.261 385.737 140.895C382.001 143.738 377.953 146.065 374.217 147.875C376.708 145.031 380.133 140.895 382.312 135.207C383.869 131.071 384.803 127.451 385.114 124.608C382.623 126.676 379.821 129.003 375.774 131.071C369.859 134.432 363.944 136.241 359.896 137.275C362.076 134.949 364.255 131.846 366.434 128.486C368.613 125.125 370.17 121.764 371.415 118.92C367.057 119.179 360.83 119.696 353.358 122.281C345.264 124.866 339.66 128.486 336.235 131.071C336.235 128.744 336.858 125.9 338.103 122.54C339.037 120.213 340.282 118.145 341.216 116.593C339.349 115.559 337.481 114.784 335.301 113.75C327.518 110.906 320.357 110.906 315.688 111.165C311.018 111.165 298.564 111.94 286.423 119.179C282.064 121.764 278.639 124.608 275.837 127.451C269.922 133.656 270.233 142.704 276.771 148.65V148.909C279.573 151.235 282.687 153.045 285.489 154.079C295.14 157.957 306.348 157.181 315.688 153.045C315.999 152.787 316.31 152.787 316.621 152.528C320.357 150.718 323.159 148.65 325.027 146.841C325.339 148.65 325.65 152.27 324.093 156.664C322.848 160.284 320.669 162.869 319.112 164.162C322.848 164.679 327.207 164.937 332.188 164.937C340.905 164.679 347.754 162.869 352.424 161.318C349.311 167.005 342.462 178.122 327.829 187.429C316.622 194.667 305.414 198.028 298.564 199.321C301.055 196.218 303.857 191.823 305.725 186.136C306.348 184.585 306.659 183.034 306.97 181.741C307.904 177.863 306.036 173.985 302.3 171.4C297.942 168.298 293.272 168.039 291.715 167.781H265.875C256.846 167.781 248.129 168.815 239.412 170.883C234.742 171.917 229.761 172.951 224.468 173.727C211.392 175.795 199.562 176.829 189.599 177.088C196.76 176.054 209.213 173.468 221.044 165.713C225.402 162.869 228.827 159.767 231.317 157.181L205.788 155.63Z" fill="#FC911E" style="mix-blend-mode:overlay"/>
<path d="M298.477 93.7934C298.538 93.8762 298.598 93.9609 298.645 94.0822L300.606 97.4451C299.271 95.1716 293.876 94.0206 290.278 93.5952C289.754 93.5524 289.224 93.5017 288.693 93.4437C281.882 92.7009 274.933 89.9147 273.661 83.2033C271.944 80.0625 268.929 77.0752 267.636 75.9741C268.283 76.5247 271.355 78.757 277.333 80.929C284.264 80.3458 294.13 82.0376 298.273 93.4437L298.477 93.7934Z" fill="url(#paint10_linear_732_29)"/>
<path d="M298.667 94.143C298.566 93.8273 298.383 93.7461 298.273 93.4437M298.273 93.4437C294.13 82.0376 284.264 80.3458 277.333 80.929M298.273 93.4437L300.606 97.4451C299.055 94.8025 292.017 93.6764 288.693 93.4437M298.273 93.4437C295.628 93.8931 292.217 93.8281 288.693 93.4437M277.333 80.929C275.988 81.0422 274.483 80.6665 273.455 80.9291C273.455 81.733 273.526 82.4903 273.661 83.2033M277.333 80.929C271.355 78.757 268.283 76.5247 267.636 75.9741C268.929 77.0752 271.944 80.0625 273.661 83.2033M273.661 83.2033C274.933 89.9147 281.882 92.7009 288.693 93.4437" stroke="#292828" stroke-width="0.3"/>
<defs>
<linearGradient id="paint0_linear_732_29" x1="217.212" y1="251.045" x2="315.044" y2="365.923" gradientUnits="userSpaceOnUse">
<stop/>
<stop offset="1" stop-color="#8E8E8E"/>
</linearGradient>
<linearGradient id="paint1_linear_732_29" x1="217.212" y1="251.045" x2="315.044" y2="365.923" gradientUnits="userSpaceOnUse">
<stop/>
<stop offset="1" stop-color="#8E8E8E"/>
</linearGradient>
<linearGradient id="paint2_linear_732_29" x1="217.212" y1="251.045" x2="315.044" y2="365.923" gradientUnits="userSpaceOnUse">
<stop/>
<stop offset="1" stop-color="#8E8E8E"/>
</linearGradient>
<linearGradient id="paint3_linear_732_29" x1="217.212" y1="251.045" x2="315.044" y2="365.923" gradientUnits="userSpaceOnUse">
<stop/>
<stop offset="1" stop-color="#8E8E8E"/>
</linearGradient>
<linearGradient id="paint4_linear_732_29" x1="217.212" y1="251.045" x2="315.044" y2="365.923" gradientUnits="userSpaceOnUse">
<stop/>
<stop offset="1" stop-color="#8E8E8E"/>
</linearGradient>
<linearGradient id="paint5_linear_732_29" x1="217.212" y1="251.045" x2="315.044" y2="365.923" gradientUnits="userSpaceOnUse">
<stop/>
<stop offset="1" stop-color="#8E8E8E"/>
</linearGradient>
<linearGradient id="paint6_linear_732_29" x1="217.212" y1="251.045" x2="315.044" y2="365.923" gradientUnits="userSpaceOnUse">
<stop/>
<stop offset="1" stop-color="#8E8E8E"/>
</linearGradient>
<linearGradient id="paint7_linear_732_29" x1="217.212" y1="251.045" x2="315.044" y2="365.923" gradientUnits="userSpaceOnUse">
<stop/>
<stop offset="1" stop-color="#8E8E8E"/>
</linearGradient>
<linearGradient id="paint8_linear_732_29" x1="217.212" y1="251.045" x2="315.044" y2="365.923" gradientUnits="userSpaceOnUse">
<stop/>
<stop offset="1" stop-color="#8E8E8E"/>
</linearGradient>
<linearGradient id="paint9_linear_732_29" x1="217.212" y1="251.045" x2="315.044" y2="365.923" gradientUnits="userSpaceOnUse">
<stop/>
<stop offset="1" stop-color="#8E8E8E"/>
</linearGradient>
<linearGradient id="paint10_linear_732_29" x1="284.121" y1="75.9741" x2="284.121" y2="97.4451" gradientUnits="userSpaceOnUse">
<stop stop-color="#FF0000"/>
<stop offset="1" stop-color="#FFA800"/>
</linearGradient>
</defs>
</svg>
